<svg width="33" height="34" viewBox="0 0 33 34" fill="none" xmlns="http://www.w3.org/2000/svg">
<path d="M26.125 8.75H22V7.375C22 6.64565 21.7103 5.94618 21.1945 5.43046C20.6788 4.91473 19.9793 4.625 19.25 4.625H13.75C13.0207 4.625 12.3212 4.91473 11.8055 5.43046C11.2897 5.94618 11 6.64565 11 7.375V8.75H6.875C5.78098 8.75 4.73177 9.1846 3.95818 9.95818C3.1846 10.7318 2.75 11.781 2.75 12.875V25.25C2.75 26.344 3.1846 27.3932 3.95818 28.1668C4.73177 28.9404 5.78098 29.375 6.875 29.375H26.125C27.219 29.375 28.2682 28.9404 29.0418 28.1668C29.8154 27.3932 30.25 26.344 30.25 25.25V12.875C30.25 11.781 29.8154 10.7318 29.0418 9.95818C28.2682 9.1846 27.219 8.75 26.125 8.75ZM13.75 7.375H19.25V8.75H13.75V7.375ZM27.5 25.25C27.5 25.6147 27.3551 25.9644 27.0973 26.2223C26.8394 26.4801 26.4897 26.625 26.125 26.625H6.875C6.51033 26.625 6.16059 26.4801 5.90273 26.2223C5.64487 25.9644 5.5 25.6147 5.5 25.25V17.5363L11.935 19.75C12.081 19.7696 12.229 19.7696 12.375 19.75H20.625C20.7741 19.7471 20.9221 19.7239 21.065 19.6812L27.5 17.5363V25.25ZM27.5 14.635L20.405 17H12.595L5.5 14.635V12.875C5.5 12.5103 5.64487 12.1606 5.90273 11.9027C6.16059 11.6449 6.51033 11.5 6.875 11.5H26.125C26.4897 11.5 26.8394 11.6449 27.0973 11.9027C27.3551 12.1606 27.5 12.5103 27.5 12.875V14.635Z" fill="#676767"/>
</svg>
