<svg width="31" height="29" viewBox="0 0 31 29" fill="none" xmlns="http://www.w3.org/2000/svg">
<path d="M25.6983 19.6054C31.131 12.7166 29.6638 5.88563 25.7616 3.49176C22.0738 1.22988 18.855 2.14151 16.9217 3.59351L15.5 4.65776M25.6983 19.6054C24.3948 21.2595 22.694 22.915 20.5325 24.5141C18.4081 26.0885 17.3452 26.875 15.5 26.875C13.6547 26.875 12.5932 26.0885 10.4675 24.5141C-0.694776 16.2531 0.399724 6.46038 5.23835 3.49176C8.9261 1.22988 12.145 2.14151 14.0782 3.59351L15.5 4.65776M25.6983 19.6054L18.1015 10.9869C17.9506 10.8164 17.7442 10.7048 17.5189 10.6721C17.2936 10.6394 17.064 10.6876 16.8708 10.8081L13.8651 12.6864C13.2757 13.0593 12.5648 13.1898 11.8814 13.0506C11.1979 12.9114 10.5948 12.5133 10.1981 11.9395C9.80147 11.3658 9.64207 10.6609 9.75327 9.97232C9.86447 9.28375 10.2376 8.66485 10.7947 8.24513L15.5 4.65776" stroke="#757575" stroke-width="3.1875" stroke-linecap="round" stroke-linejoin="round"/>
</svg>
